<svg width="337" height="55" viewBox="0 0 337 55" fill="none" xmlns="http://www.w3.org/2000/svg">
<rect width="337" height="55" rx="16" fill="#4571F5"/>
<path d="M131.786 34L130.418 30.832H123.938L122.57 34H120.68L126.386 21.184H127.952L133.676 34H131.786ZM124.568 29.356H129.788L127.178 23.254L124.568 29.356ZM143.472 20.752V34H141.672V32.452C141.408 32.992 141.012 33.406 140.484 33.694C139.968 33.982 139.362 34.126 138.666 34.126C137.886 34.126 137.19 33.928 136.578 33.532C135.966 33.136 135.486 32.584 135.138 31.876C134.802 31.156 134.634 30.328 134.634 29.392C134.634 28.456 134.802 27.634 135.138 26.926C135.474 26.218 135.942 25.672 136.542 25.288C137.154 24.904 137.862 24.712 138.666 24.712C139.35 24.712 139.95 24.856 140.466 25.144C140.994 25.432 141.39 25.84 141.654 26.368V20.752H143.472ZM139.08 32.686C139.908 32.686 140.544 32.404 140.988 31.84C141.444 31.264 141.672 30.46 141.672 29.428C141.672 28.396 141.444 27.598 140.988 27.034C140.544 26.458 139.914 26.17 139.098 26.17C138.27 26.17 137.622 26.452 137.154 27.016C136.698 27.58 136.47 28.372 136.47 29.392C136.47 30.424 136.698 31.234 137.154 31.822C137.622 32.398 138.264 32.686 139.08 32.686ZM154.441 20.752V34H152.641V32.452C152.377 32.992 151.981 33.406 151.453 33.694C150.937 33.982 150.331 34.126 149.635 34.126C148.855 34.126 148.159 33.928 147.547 33.532C146.935 33.136 146.455 32.584 146.107 31.876C145.771 31.156 145.603 30.328 145.603 29.392C145.603 28.456 145.771 27.634 146.107 26.926C146.443 26.218 146.911 25.672 147.511 25.288C148.123 24.904 148.831 24.712 149.635 24.712C150.319 24.712 150.919 24.856 151.435 25.144C151.963 25.432 152.359 25.84 152.623 26.368V20.752H154.441ZM150.049 32.686C150.877 32.686 151.513 32.404 151.957 31.84C152.413 31.264 152.641 30.46 152.641 29.428C152.641 28.396 152.413 27.598 151.957 27.034C151.513 26.458 150.883 26.17 150.067 26.17C149.239 26.17 148.591 26.452 148.123 27.016C147.667 27.58 147.439 28.372 147.439 29.392C147.439 30.424 147.667 31.234 148.123 31.822C148.591 32.398 149.233 32.686 150.049 32.686ZM164.268 26.332V30.886C164.268 31.51 164.4 31.954 164.664 32.218C164.94 32.47 165.318 32.596 165.798 32.596C166.11 32.596 166.428 32.548 166.752 32.452V33.928C166.356 34.06 165.906 34.126 165.402 34.126C164.466 34.126 163.74 33.862 163.224 33.334C162.708 32.806 162.45 32.038 162.45 31.03V26.332H160.686V24.928H162.45V22.66L164.268 22.03V24.928H166.77V26.332H164.268ZM172.355 34.126C171.467 34.126 170.687 33.934 170.015 33.55C169.343 33.166 168.821 32.62 168.449 31.912C168.089 31.204 167.909 30.376 167.909 29.428C167.909 28.48 168.089 27.652 168.449 26.944C168.821 26.224 169.343 25.672 170.015 25.288C170.687 24.904 171.467 24.712 172.355 24.712C173.231 24.712 174.005 24.904 174.677 25.288C175.349 25.672 175.865 26.224 176.225 26.944C176.597 27.652 176.783 28.48 176.783 29.428C176.783 30.376 176.597 31.204 176.225 31.912C175.865 32.62 175.349 33.166 174.677 33.55C174.005 33.934 173.231 34.126 172.355 34.126ZM172.337 32.686C173.177 32.686 173.819 32.41 174.263 31.858C174.707 31.306 174.929 30.496 174.929 29.428C174.929 28.384 174.701 27.58 174.245 27.016C173.801 26.452 173.171 26.17 172.355 26.17C171.527 26.17 170.885 26.452 170.429 27.016C169.973 27.58 169.745 28.384 169.745 29.428C169.745 30.496 169.967 31.306 170.411 31.858C170.867 32.41 171.509 32.686 172.337 32.686ZM187.649 34.126C186.737 34.126 185.939 33.934 185.255 33.55C184.583 33.166 184.067 32.626 183.707 31.93C183.347 31.222 183.167 30.4 183.167 29.464C183.167 28.528 183.353 27.7 183.725 26.98C184.109 26.26 184.643 25.702 185.327 25.306C186.011 24.91 186.809 24.712 187.721 24.712C188.357 24.712 188.969 24.82 189.557 25.036C190.145 25.24 190.619 25.522 190.979 25.882L190.421 27.196C189.569 26.524 188.711 26.188 187.847 26.188C186.971 26.188 186.287 26.476 185.795 27.052C185.303 27.616 185.057 28.414 185.057 29.446C185.057 30.478 185.303 31.276 185.795 31.84C186.287 32.392 186.971 32.668 187.847 32.668C188.735 32.668 189.593 32.332 190.421 31.66L190.979 32.974C190.595 33.334 190.103 33.616 189.503 33.82C188.915 34.024 188.297 34.126 187.649 34.126ZM200.987 24.928V34H199.187V32.452C198.923 32.992 198.527 33.406 197.999 33.694C197.483 33.982 196.877 34.126 196.181 34.126C195.377 34.126 194.669 33.934 194.057 33.55C193.457 33.166 192.989 32.626 192.653 31.93C192.317 31.222 192.149 30.4 192.149 29.464C192.149 28.528 192.317 27.7 192.653 26.98C193.001 26.26 193.481 25.702 194.093 25.306C194.705 24.91 195.401 24.712 196.181 24.712C196.877 24.712 197.483 24.862 197.999 25.162C198.515 25.45 198.911 25.864 199.187 26.404V24.928H200.987ZM196.613 32.686C197.429 32.686 198.059 32.404 198.503 31.84C198.959 31.264 199.187 30.46 199.187 29.428C199.187 28.384 198.959 27.58 198.503 27.016C198.059 26.452 197.423 26.17 196.595 26.17C195.779 26.17 195.137 26.464 194.669 27.052C194.213 27.628 193.985 28.432 193.985 29.464C193.985 30.484 194.213 31.276 194.669 31.84C195.137 32.404 195.785 32.686 196.613 32.686ZM208.176 24.712C208.452 24.712 208.74 24.754 209.04 24.838L209.004 26.494C208.68 26.374 208.326 26.314 207.942 26.314C207.114 26.314 206.49 26.566 206.07 27.07C205.662 27.562 205.458 28.186 205.458 28.942V34H203.658V27.484C203.658 26.536 203.61 25.684 203.514 24.928H205.206L205.368 26.566C205.608 25.966 205.98 25.51 206.484 25.198C206.988 24.874 207.552 24.712 208.176 24.712ZM213.54 26.332V30.886C213.54 31.51 213.672 31.954 213.936 32.218C214.212 32.47 214.59 32.596 215.07 32.596C215.382 32.596 215.7 32.548 216.024 32.452V33.928C215.628 34.06 215.178 34.126 214.674 34.126C213.738 34.126 213.012 33.862 212.496 33.334C211.98 32.806 211.722 32.038 211.722 31.03V26.332H209.958V24.928H211.722V22.66L213.54 22.03V24.928H216.042V26.332H213.54Z" fill="white"/>
</svg>
