<svg width="18" height="18" viewBox="0 0 18 18" fill="none" xmlns="http://www.w3.org/2000/svg">
<path d="M8.2477 1.03819C8.48007 0.597761 9.11083 0.597761 9.34321 1.03819L11.682 5.47111C11.7717 5.64096 11.935 5.75962 12.1242 5.79237L17.0629 6.64689C17.5536 6.73178 17.7485 7.33168 17.4014 7.68878L13.9082 11.283C13.7744 11.4207 13.712 11.6127 13.7393 11.8028L14.4528 16.7638C14.5237 17.2567 14.0134 17.6275 13.5665 17.4078L9.06872 15.1962C8.89639 15.1115 8.69451 15.1115 8.52218 15.1962L4.02441 17.4078C3.57754 17.6275 3.06724 17.2567 3.13812 16.7638L3.85157 11.8028C3.8789 11.6127 3.81652 11.4207 3.68268 11.283L0.189455 7.68878C-0.157608 7.33168 0.0373089 6.73179 0.527986 6.64689L5.46669 5.79237C5.65591 5.75963 5.81924 5.64096 5.90886 5.47111L8.2477 1.03819Z" fill="#F8AB18"/>
</svg>
